<svg fill="#2cc6d0" height="512pt" viewBox="-4 0 512 512" width="512pt" xmlns="http://www.w3.org/2000/svg"><path d="m332.601562 347.15625c-9.210937 7.714844-19.410156 14.121094-30.320312 19.035156-3.632812 1.636719-5.96875 5.253906-5.96875 9.234375v9.542969h-102.257812v-12.726562c0-3.792969-2.117188-7.269532-5.492188-9.007813-43.886719-22.601563-71.148438-67.28125-71.148438-116.601563 0-72.273437 58.800782-131.070312 131.070313-131.070312 72.273437 0 131.070313 58.796875 131.070313 131.070312 0 10.371094-1.210938 20.6875-3.605469 30.667969-.484375 2.015625-1.011719 4.023438-1.59375 6.011719-.464844 1.601562-1.007813 3.144531-1.023438 4.828125-.019531 2.851563 1.207031 5.640625 3.3125 7.5625 4.433594 4.039063 11.617188 3.25 15.082031-1.628906 1.105469-1.554688 1.578126-3.359375 2.105469-5.164063.660157-2.28125 1.269531-4.578125 1.820313-6.886718 2.761718-11.523438 4.164062-23.429688 4.164062-35.390626 0-83.445312-67.886718-151.332031-151.332031-151.332031s-151.332031 67.886719-151.332031 151.332031c0 54.855469 29.203125 104.734376 76.640625 131.644532v75.074218c0 5.59375 4.535156 10.128907 10.128906 10.128907h10.601563v38.390625c0 5.59375 4.535156 10.128906 10.128906 10.128906h81.058594c5.59375 0 10.132812-4.535156 10.132812-10.128906v-38.390625h10.601562c5.59375 0 10.128907-4.535157 10.128907-10.128907v-71.535156c10.359375-5.230468 20.101562-11.644531 29.035156-19.128906 4.289063-3.59375 4.855469-9.980469 1.261719-14.269531-3.59375-4.292969-9.980469-4.855469-14.269532-1.261719-9.210937 7.714844 4.289063-3.59375 0 0zm-57.019531 144.582031h-60.796875v-28.257812h60.796875zm20.734375-48.519531h-102.261718v-37.988281h102.257812v37.988281zm0 0"/><path d="m245.183594 66.527344c5.59375 0 10.128906-4.539063 10.128906-10.132813v-46.265625c0-5.59375-4.535156-10.128906-10.128906-10.128906s-10.132813 4.535156-10.132813 10.128906v46.265625c0 5.59375 4.539063 10.132813 10.132813 10.132813zm0 0"/><path d="m493.039062 231.835938s-.003906 0-.007812 0l-46.265625.039062c-5.59375.007812-10.125 4.542969-10.121094 10.140625.007813 5.59375 4.539063 10.121094 10.132813 10.121094h.007812l46.265625-.039063c5.59375-.003906 10.125-4.542968 10.121094-10.140625-.007813-5.589843-4.539063-10.121093-10.132813-10.121093zm0 0"/><path d="m56.394531 231.835938c-.003906 0-.007812 0-.011719 0l-46.261718.039062c-5.59375.007812-10.12500025 4.542969-10.121094 10.140625.00390625 5.59375 4.539062 10.121094 10.128906 10.121094h.011719l46.261719-.039063c5.59375-.003906 10.128906-4.542968 10.121094-10.140625-.003907-5.589843-4.539063-10.121093-10.128907-10.121093zm0 0"/><path d="m393.648438 377.226562c-3.957032-3.949218-10.371094-3.945312-14.328126.011719-3.949218 3.960938-3.945312 10.375.015626 14.328125l32.738281 32.6875c4.152343 4.144532 11.164062 3.824219 14.929687-.667968 3.328125-3.972657 3.050782-10.011719-.613281-13.671876zm0 0"/><path d="m110.476562 118.460938c4.234376 0 8.117188-2.738282 9.542969-6.722657 1.304688-3.652343.359375-7.839843-2.382812-10.578125l-32.742188-32.6875c-3.960937-3.949218-10.375-3.945312-14.328125.011719-3.953125 3.960937-3.945312 10.375.011719 14.328125l32.742187 32.6875c1.976563 1.972656 4.566407 2.960938 7.15625 2.960938zm0 0"/><path d="m434.152344 75.578125c-3.957032-3.953125-10.371094-3.949219-14.328125.011719l-32.683594 32.742187c-3.660156 3.664063-3.929687 9.703125-.59375 13.671875 3.773437 4.484375 10.785156 4.792969 14.929687.644532l32.6875-32.742188c3.953126-3.960938 3.949219-10.375-.011718-14.328125-3.957032-3.953125 3.960937 3.953125 0 0zm0 0"/><path d="m111.070312 384.34375-32.6875 32.742188c-3.65625 3.664062-3.925781 9.703124-.589843 13.671874 3.773437 4.484376 10.785156 4.792969 14.929687.644532l32.6875-32.742188c3.949219-3.960937 3.945313-10.375-.011718-14.328125-3.960938-3.953125-10.375-3.945312-14.328126.011719zm0 0"/><path d="m375.195312 319.214844c-3-2.984375-7.652343-3.796875-11.480468-1.996094-3.816406 1.789062-6.183594 5.914062-5.777344 10.117188.40625 4.210937 3.476562 7.789062 7.566406 8.847656 4.082032 1.058594 8.546875-.617188 10.90625-4.117188 2.675782-3.96875 2.179688-9.457031-1.214844-12.851562-1.894531-1.882813 1.882813 1.882812 0 0zm0 0"/></svg>