<svg fill="#ffffff" height="512pt" viewBox="0 -61 512 512" width="512pt" xmlns="http://www.w3.org/2000/svg"><path d="m261.730469 66.652344c.015625-5.746094-2.777344-11.117188-7.46875-14.367188-4.644531-3.21875-10.582031-3.945312-15.890625-1.941406-4.992188 1.890625-9.808594 4.347656-14.308594 7.308594l-13.460938 8.867187c-3.75 2.46875-6.3125 6.25-7.21875 10.648438-.902343 4.394531-.042968 8.882812 2.429688 12.632812l85.390625 129.617188h-132.476563v-52.65625c0-5.691407-3.382812-10.808594-8.617187-13.042969-5.234375-2.230469-11.269531-1.128906-15.375 2.8125l-2.453125 2.351562c-2.742188 2.628907-6.347656 4.078126-10.148438 4.078126-8.082031 0-14.660156-6.574219-14.660156-14.660157v-34.878906h33.414063c4.828125 0 9.292969-2.410156 11.945312-6.449219 2.652344-4.035156 3.089844-9.089844 1.171875-13.519531l-20.652344-47.710937c-2.953124-6.824219-9.664062-11.230469-17.097656-11.230469h-23.355468c-28.496094 0-51.679688 23.183593-51.679688 51.679687v138.421875c-24.777344 10.378907-41.21875 34.882813-41.21875 61.941407 0 6.242187.867188 12.40625 2.554688 18.355468-1.652344 5.820313-2.554688 11.953125-2.554688 18.292969 0 37.019531 30.113281 67.132813 67.132812 67.132813h73.605469c4.140625 0 7.5-3.355469 7.5-7.5 0-4.140626-3.359375-7.5-7.5-7.5h-73.605469c-28.746093 0-52.132812-23.386719-52.132812-52.132813s23.386719-52.132813 52.132812-52.132813h177.605469c4.140625 0 7.5-3.355468 7.5-7.5 0-4.140624-3.359375-7.5-7.5-7.5h-86.011719v-21.648437h142.355469l14.265625 21.648437h-36.085937c-4.144531 0-7.5 3.359376-7.5 7.5 0 4.144532 3.355469 7.5 7.5 7.5h165.601562c28.746094 0 52.132813 23.386719 52.132813 52.132813s-23.386719 52.132813-52.132813 52.132813h-269.601562c-4.144531 0-7.5 3.359374-7.5 7.5 0 4.144531 3.355469 7.5 7.5 7.5h269.605469c37.019531 0 67.132812-30.113282 67.132812-67.132813 0-6.339844-.902344-12.46875-2.554688-18.289063.011719-.035156.03125-.066406.039063-.101562 1.667969-5.914062 2.515625-12.058594 2.515625-18.257812 0-25.804688-14.660156-49.082032-37.644531-60.316407v-81.808593c0-4.144532-3.355469-7.5-7.5-7.5-4.140625 0-7.5 3.355468-7.5 7.5v113.234374c-4.667969-1.03125-9.511719-1.59375-14.488281-1.59375h-60.9375v-239.265624c0-.996094.808593-1.804688 1.804687-1.804688h16.117187c31.710938 0 57.507813 25.796875 57.507813 57.507812v37.398438c0 4.144531 3.355469 7.5 7.5 7.5 4.140625 0 7.5-3.355469 7.5-7.5v-37.398438c0-39.980468-32.527344-72.507812-72.507813-72.507812h-16.117187c-9.265625 0-16.804687 7.539062-16.804687 16.804688v128.953124l-23.5-35.671874c-4.855469-7.371094-14.417969-9.882813-22.242188-5.84375-6.007812 3.101562-12.503906 4.675781-19.308594 4.675781-23.242187 0-42.148437-18.910157-42.148437-42.148438zm-220.507813 194.625c-10.117187 4.25-18.980468 10.902344-25.871094 19.242187 1.925782-16.421875 11.625-31.015625 25.871094-39.203125zm102.503906-5.207032h-76.59375c-3.71875 0-7.359374.316407-10.914062.902344v-170.78125c0-20.222656 16.457031-36.679687 36.679688-36.679687h23.355468c1.449219 0 2.757813.859375 3.332032 2.1875l20.222656 46.722656h-33.042969c-7.882813 0-14.292969 6.410156-14.292969 14.292969v35.589844c0 16.351562 13.304688 29.660156 29.660156 29.660156 7.691407 0 14.984376-2.933594 20.53125-8.257813l1.0625-1.015625zm225.203126 0h-35.621094l-19.425782-29.488281 14.316407-10.175781c3.378906-2.398438 4.167969-7.082031 1.769531-10.457031s-7.082031-4.167969-10.457031-1.765625l-13.882813 9.867187-12.152344-18.445312 14.722657-10.464844c3.375-2.402344 4.167969-7.082031 1.769531-10.457031-2.402344-3.375-7.085938-4.167969-10.460938-1.769532l-14.289062 10.15625-66.878906-101.519531c-.34375-.519531-.332032-1.023437-.261719-1.359375.066406-.332031.257813-.800781.773437-1.144531l13.460938-8.863281c3.578125-2.355469 7.402344-4.308594 11.363281-5.804688.910157-.34375 1.613281-.0625 2.042969.234375.378906.265625 1.015625.875 1.011719 2.046875v.109375c0 31.511719 25.636719 57.148438 57.148437 57.148438 9.09375 0 18.148438-2.195313 26.1875-6.34375.996094-.511719 2.210938-.183594 2.835938.761719l36.027344 54.6875zm105.425781 6.839844v-19.359375c12.378906 8.476563 20.558593 21.921875 22.296875 36.972657-6.066406-7.34375-13.664063-13.371094-22.296875-17.613282zm0 0"/><path d="m57.097656 323.203125c0 13.890625 11.300782 25.1875 25.1875 25.1875 13.890625 0 25.1875-11.296875 25.1875-25.1875 0-13.886719-11.296875-25.1875-25.1875-25.1875s-25.1875 11.300781-25.1875 25.1875zm35.375 0c0 5.617187-4.570312 10.1875-10.1875 10.1875-5.621094 0-10.1875-4.570313-10.1875-10.1875s4.570313-10.1875 10.1875-10.1875c5.617188 0 10.1875 4.570313 10.1875 10.1875zm0 0"/><path d="m457.644531 323.203125c0-15.398437-12.53125-27.925781-27.929687-27.925781-15.398438 0-27.925782 12.527344-27.925782 27.925781s12.527344 27.929687 27.925782 27.929687c15.398437 0 27.929687-12.53125 27.929687-27.929687zm-40.855469 0c0-7.128906 5.796876-12.925781 12.925782-12.925781s12.929687 5.796875 12.929687 12.925781-5.800781 12.929687-12.929687 12.929687-12.925782-5.800781-12.925782-12.929687zm0 0"/></svg>